<?xml version="1.0" encoding="utf-8"?>
<!-- Generator: Adobe Illustrator 18.1.0, SVG Export Plug-In . SVG Version: 6.00 Build 0)  -->
<svg version="1.1" id="Layer_1" xmlns="http://www.w3.org/2000/svg" xmlns:xlink="http://www.w3.org/1999/xlink" x="0px" y="0px"
	 viewBox="0 0 436.3 55.6" enable-background="new 0 0 436.3 55.6" xml:space="preserve">
<g>
	<g>
		<g>
			<path fill="#8DC641" d="M96.8,13.7C88,5.1,77,0,65.1,0C50.4,0,37.2,7.7,27.6,20.1c8,0.7,17,2.4,26.5,5.1
				C67.8,19.4,82.9,15.3,96.8,13.7z"/>
			<path fill="#F79421" d="M109.4,12.9c-4,0-8.2,0.3-12.6,0.8c0.2,0.2,0.4,0.4,0.6,0.6c0.3,0.3,0.7,0.6,1,1c0.3,0.3,0.5,0.6,0.8,0.8
				c0.3,0.3,0.6,0.7,0.9,1c0.3,0.3,0.5,0.6,0.8,0.9c0.3,0.4,0.6,0.7,0.9,1.1c0.2,0.3,0.5,0.6,0.7,0.9c0.3,0.4,0.6,0.7,0.8,1.1
				c0.2,0.3,0.5,0.6,0.7,1c0.3,0.4,0.5,0.8,0.8,1.2c0.2,0.3,0.5,0.7,0.7,1c0.3,0.4,0.5,0.8,0.8,1.2c0.2,0.3,0.4,0.7,0.6,1
				c0.2,0.4,0.5,0.8,0.7,1.2c0.2,0.4,0.4,0.7,0.6,1.1c0.2,0.4,0.5,0.9,0.7,1.3c0.2,0.4,0.4,0.7,0.6,1.1c0.2,0.4,0.4,0.9,0.7,1.3
				c0.2,0.4,0.4,0.8,0.5,1.1c0.2,0.5,0.4,0.9,0.6,1.4c0.2,0.4,0.3,0.8,0.5,1.2c0.2,0.5,0.4,0.9,0.6,1.4c0.2,0.4,0.3,0.8,0.5,1.2
				c0.2,0.5,0.4,1,0.5,1.5c0.1,0.4,0.3,0.8,0.4,1.2c0.2,0.5,0.3,1,0.5,1.5c0.1,0.4,0.3,0.8,0.4,1.2c0.2,0.5,0.3,1.1,0.5,1.6
				c0.1,0.4,0.2,0.8,0.3,1.2c0.1,0.6,0.3,1.1,0.4,1.7c0.1,0.4,0.2,0.7,0.3,1.1c0.1,0.7,0.3,1.3,0.4,2c0.1,0.3,0.3,1.1,0.3,1.1
				c3.9,0,8.1-3.9,11.1-6.9C147.7,26.7,139.3,12.9,109.4,12.9z"/>
			<path fill="#8DC641" d="M107,26.5c0.2,0.4,0.5,0.8,0.7,1.2C107.4,27.4,107.2,26.9,107,26.5z"/>
			<path fill="#8DC641" d="M105.5,24.3c0.3,0.4,0.5,0.8,0.8,1.2C106.1,25.1,105.8,24.7,105.5,24.3z"/>
			<path fill="#8DC641" d="M100.9,18c0.3,0.4,0.6,0.7,0.9,1.1C101.5,18.7,101.2,18.4,100.9,18z"/>
			<path fill="#8DC641" d="M99.2,16.1c0.3,0.3,0.6,0.7,0.9,1C99.8,16.8,99.5,16.5,99.2,16.1z"/>
			<path fill="#8DC641" d="M102.5,20c0.3,0.4,0.6,0.7,0.8,1.1C103.1,20.8,102.8,20.4,102.5,20z"/>
			<path fill="#8DC641" d="M97.4,14.3c0.3,0.3,0.7,0.6,1,1C98.1,14.9,97.8,14.6,97.4,14.3z"/>
			<path fill="#8DC641" d="M104.1,22.1c0.3,0.4,0.5,0.8,0.8,1.2C104.6,22.9,104.3,22.5,104.1,22.1z"/>
			<path fill="#F6CC16" d="M98.4,15.3c0.3,0.3,0.5,0.6,0.8,0.8C98.9,15.8,98.7,15.6,98.4,15.3z"/>
			<path fill="#F6CC16" d="M96.8,13.7C96.8,13.7,96.8,13.7,96.8,13.7c0.2,0.2,0.4,0.4,0.6,0.6C97.2,14.1,97,13.9,96.8,13.7z"/>
			<path fill="#F6CC16" d="M106.3,25.5c0.2,0.3,0.4,0.7,0.6,1C106.7,26.2,106.5,25.8,106.3,25.5z"/>
			<path fill="#F6CC16" d="M104.9,23.3c0.2,0.3,0.5,0.7,0.7,1C105.3,23.9,105.1,23.6,104.9,23.3z"/>
			<path fill="#F6CC16" d="M103.3,21.1c0.2,0.3,0.5,0.6,0.7,1C103.8,21.8,103.6,21.5,103.3,21.1z"/>
			<path fill="#F6CC16" d="M100.1,17.1c0.3,0.3,0.5,0.6,0.8,0.9C100.6,17.7,100.4,17.4,100.1,17.1z"/>
			<path fill="#F6CC16" d="M101.8,19.1c0.2,0.3,0.5,0.6,0.7,0.9C102.3,19.7,102,19.4,101.8,19.1z"/>
			<path fill="#D9E028" d="M116.9,52.9c-0.1-0.3-0.2-0.8-0.3-1.1c-0.1-0.7-0.3-1.3-0.4-2c-0.1-0.4-0.2-0.7-0.3-1.1
				c-0.1-0.6-0.3-1.2-0.4-1.7c-0.1-0.4-0.2-0.8-0.3-1.2c-0.1-0.5-0.3-1.1-0.5-1.6c-0.1-0.4-0.2-0.8-0.4-1.2c-0.2-0.5-0.3-1-0.5-1.5
				c-0.1-0.4-0.3-0.8-0.4-1.2c-0.2-0.5-0.3-1-0.5-1.5c-0.2-0.4-0.3-0.8-0.5-1.2c-0.2-0.5-0.4-0.9-0.6-1.4c-0.2-0.4-0.3-0.8-0.5-1.2
				c-0.2-0.5-0.4-0.9-0.6-1.4c-0.2-0.4-0.4-0.8-0.5-1.1c-0.2-0.4-0.4-0.9-0.7-1.3c-0.2-0.4-0.4-0.7-0.6-1.1
				c-0.2-0.4-0.5-0.9-0.7-1.3c-0.2-0.4-0.4-0.7-0.6-1.1c-0.2-0.4-0.5-0.8-0.7-1.2c-0.2-0.4-0.4-0.7-0.6-1c-0.3-0.4-0.5-0.8-0.8-1.2
				c-0.2-0.3-0.4-0.7-0.7-1c-0.3-0.4-0.5-0.8-0.8-1.2c-0.2-0.3-0.5-0.7-0.7-1c-0.3-0.4-0.6-0.7-0.8-1.1c-0.2-0.3-0.5-0.6-0.7-0.9
				c-0.3-0.4-0.6-0.7-0.9-1.1c-0.2-0.3-0.5-0.6-0.8-0.9c-0.3-0.3-0.6-0.7-0.9-1c-0.3-0.3-0.5-0.6-0.8-0.8c-0.3-0.3-0.6-0.7-1-1
				c-0.2-0.2-0.4-0.4-0.6-0.6c-13.9,1.6-29,5.7-42.7,11.5C74.6,30.9,97.5,41.1,116.9,52.9z"/>
			<path fill="#2AAAE2" d="M27.6,20.1c-0.1,0.1-0.1,0.1-0.2,0.2c-0.7,1-1.5,1.9-2.1,3c-0.1,0.2-0.3,0.4-0.4,0.6
				c-0.1,0.1-0.2,0.3-0.3,0.4c-0.5,0.8-1,1.6-1.5,2.4c-0.1,0.1-0.2,0.3-0.2,0.4c0,0,0,0,0,0.1c-0.3,0.6-0.6,1.1-1,1.7
				c-0.2,0.3-0.3,0.6-0.5,0.9c-0.2,0.3-0.3,0.6-0.5,0.9c-0.1,0.2-0.2,0.4-0.3,0.6c-0.6,1.1-1.1,2.2-1.7,3.3
				c-0.1,0.2-0.2,0.6-0.3,0.8c-0.5,1.2-1,2.2-1.6,3.8c-0.5,1.3-0.8,2.2-1.3,3.6l-1.3,4.3c-0.1,0.2-0.3,1.1-0.4,1.4
				c-0.3,1.3-0.9,3.2-1.1,4.6c0,0,0,0.1,0.2,0c0,0-0.1,0-0.1,0l-0.2,0C-6.3,34.1-4.4,19.9,20.9,19.9C23,19.9,25.3,19.9,27.6,20.1z"
				/>
			<path fill="#2AAAE2" d="M24.5,24c-0.5,0.8-1,1.6-1.5,2.4C23.4,25.6,23.9,24.8,24.5,24z"/>
			<path fill="#EFB335" d="M27.4,19.8c-0.1,0.1-0.1,0.1-0.2,0.2C27.3,19.9,27.4,19.8,27.4,19.8C27.4,19.8,27.4,19.8,27.4,19.8z"/>
			<path fill="#1072BA" d="M54.1,25.2c-13.6,5.7-25.9,13.2-34.4,21.5C17,49.4,14,52.1,13.1,53c0,0,0,0,0,0c-0.2,0-0.2,0-0.2,0
				c0.3-1.4,0.8-3.2,1.1-4.6c0.1-0.2,0.3-1.1,0.4-1.4l1.3-4.3c0.4-1.3,0.8-2.2,1.3-3.6c0.6-1.5,1-2.5,1.6-3.8
				c0.1-0.2,0.2-0.6,0.3-0.8c0.5-1.2,1.1-2.2,1.7-3.3c0.1-0.2,0.2-0.4,0.3-0.6c0.2-0.3,0.3-0.6,0.5-0.9c0.2-0.3,0.3-0.6,0.5-0.9
				c0.3-0.6,0.6-1.1,1-1.7c0,0,0,0,0-0.1c0.1-0.1,0.2-0.3,0.2-0.4c0.5-0.8,1-1.6,1.5-2.4c0.1-0.1,0.2-0.3,0.3-0.4
				c0.1-0.2,0.3-0.4,0.4-0.6c0.7-1,1.4-2,2.1-3c0.1-0.1,0.1-0.1,0.2-0.2c7.7,0.6,16.4,2.3,25.6,4.8C53.5,25,53.8,25.1,54.1,25.2z"/>
			<linearGradient id="SVGID_1_" gradientUnits="userSpaceOnUse" x1="96.845" y1="33.1267" x2="116.9179" y2="33.1267">
				<stop  offset="0" style="stop-color:#FFFFFF"/>
				<stop  offset="1" style="stop-color:#C1282D"/>
			</linearGradient>
			<path opacity="0.35" fill="url(#SVGID_1_)" d="M100.9,13.3c-1.3,0.1-2.7,0.2-4,0.4c0.2,0.2,0.4,0.4,0.6,0.6c0.3,0.3,0.7,0.6,1,1
				c0.3,0.3,0.5,0.6,0.8,0.8c0.3,0.3,0.6,0.7,0.9,1c0.3,0.3,0.5,0.6,0.8,0.9c0.3,0.4,0.6,0.7,0.9,1.1c0.2,0.3,0.5,0.6,0.7,0.9
				c0.3,0.4,0.6,0.7,0.8,1.1c0.2,0.3,0.5,0.6,0.7,1c0.3,0.4,0.5,0.8,0.8,1.2c0.2,0.3,0.5,0.7,0.7,1c0.3,0.4,0.5,0.8,0.8,1.2
				c0.2,0.3,0.4,0.7,0.6,1c0.2,0.4,0.5,0.8,0.7,1.2c0.2,0.4,0.4,0.7,0.6,1.1c0.2,0.4,0.5,0.9,0.7,1.3c0.2,0.4,0.4,0.7,0.6,1.1
				c0.2,0.4,0.4,0.9,0.7,1.3c0.2,0.4,0.4,0.8,0.5,1.1c0.2,0.5,0.4,0.9,0.6,1.4c0.2,0.4,0.3,0.8,0.5,1.2c0.2,0.5,0.4,0.9,0.6,1.4
				c0.2,0.4,0.3,0.8,0.5,1.2c0.2,0.5,0.4,1,0.5,1.5c0.1,0.4,0.3,0.8,0.4,1.2c0.2,0.5,0.3,1,0.5,1.5c0.1,0.4,0.3,0.8,0.4,1.2
				c0.2,0.5,0.3,1.1,0.5,1.6c0.1,0.4,0.2,0.8,0.3,1.2c0.1,0.6,0.3,1.1,0.4,1.7c0.1,0.4,0.2,0.7,0.3,1.1c0.2,0.7,0.3,1.3,0.4,2
				c0.1,0.3,0.2,0.8,0.3,1.1C116.9,52.7,114.9,29.7,100.9,13.3z"/>
			<linearGradient id="SVGID_2_" gradientUnits="userSpaceOnUse" x1="27.5798" y1="22.0258" x2="54.0939" y2="22.0258">
				<stop  offset="0" style="stop-color:#D9E028"/>
				<stop  offset="1" style="stop-color:#046937"/>
			</linearGradient>
			<path opacity="0.35" fill="url(#SVGID_2_)" d="M27.6,20.1c8,0.7,17,2.4,26.5,5.1c0,0-11.4-4.8-25.5-6.3
				C28.2,19.3,27.9,19.7,27.6,20.1z"/>
		</g>
	</g>
	<g>
		<g>
			<path d="M426.7,19.5v-5.4h-1.9v-0.7h4.6v0.7h-1.9v5.4H426.7z"/>
			<path d="M435.6,19.5v-5.1l-2,5.1h-0.3l-2.1-5.1v5.1h-0.8v-6h1.1l1.9,4.6l1.9-4.6h1.1v6H435.6z"/>
		</g>
		<g>
			<g>
				<g>
					<path d="M191.7,41.9V26.8h-3.8v-3.2h3.8v-6.3h3.6v6.3h4.7v3.2h-4.7v14.4c0,1.7,0.8,3,2.3,3c1,0,2-0.4,2.4-1l1.1,2.7
						c-0.9,0.9-2.2,1.5-4.3,1.5C193.4,47.4,191.7,45.4,191.7,41.9z"/>
					<path d="M207.1,35.2c0-6.7,4.4-12.1,11.4-12.1S230,28.5,230,35.2c0,6.7-4.4,12.2-11.4,12.2S207.1,41.9,207.1,35.2z M226.2,35.2
						c0-4.7-2.7-8.9-7.7-8.9c-4.9,0-7.7,4.2-7.7,8.9c0,4.7,2.8,9,7.7,9C223.5,44.2,226.2,39.9,226.2,35.2z"/>
					<path d="M242.8,43.3v12.3h-3.6V23.6h3.6v3.4c1.7-2.3,4.6-4,7.8-4c6.1,0,10.3,4.6,10.3,12.1c0,7.5-4.2,12.2-10.3,12.2
						C247.4,47.4,244.6,45.9,242.8,43.3z M257.1,35.2c0-5.1-2.8-8.9-7.4-8.9c-2.8,0-5.7,1.7-6.9,3.7v10.4c1.2,2,4.1,3.7,6.9,3.7
						C254.3,44.2,257.1,40.3,257.1,35.2z"/>
					<path d="M268.6,35.2c0-6.8,4.6-12.1,11.5-12.1c4.2,0,6.7,1.7,8.5,4l-2.4,2.2c-1.5-2.1-3.5-3-5.9-3c-4.9,0-8,3.8-8,8.9
						c0,5.1,3.1,9,8,9c2.4,0,4.4-1,5.9-3l2.4,2.2c-1.8,2.3-4.3,4-8.5,4C273.2,47.4,268.6,42.1,268.6,35.2z"/>
					<path d="M295.7,35.2c0-6.7,4.4-12.1,11.4-12.1c7,0,11.4,5.4,11.4,12.1c0,6.7-4.4,12.2-11.4,12.2
						C300.1,47.4,295.7,41.9,295.7,35.2z M314.8,35.2c0-4.7-2.7-8.9-7.7-8.9c-4.9,0-7.7,4.2-7.7,8.9c0,4.7,2.8,9,7.7,9
						C312,44.2,314.8,39.9,314.8,35.2z"/>
					<path d="M344.5,46.8v-3.4c-1.7,2.3-4.6,4-7.8,4c-6,0-10.3-4.6-10.3-12.1c0-7.4,4.2-12.2,10.3-12.2c3.1,0,5.9,1.5,7.8,4.1V14.8
						h3.6v31.9H344.5z M344.5,40.5V30c-1.3-2-4.1-3.7-6.9-3.7c-4.6,0-7.4,3.8-7.4,9c0,5.1,2.8,8.9,7.4,8.9
						C340.4,44.2,343.2,42.5,344.5,40.5z"/>
					<path d="M357.3,35.2c0-6.7,4.8-12.1,11.4-12.1c7,0,11.1,5.5,11.1,12.4v0.9h-18.7c0.3,4.4,3.4,8,8.3,8c2.6,0,5.3-1.1,7.1-2.9
						l1.7,2.3c-2.3,2.3-5.4,3.5-9.2,3.5C362.2,47.4,357.3,42.4,357.3,35.2z M368.6,26c-4.9,0-7.4,4.2-7.6,7.7h15.2
						C376.2,30.3,373.9,26,368.6,26z"/>
					<path d="M389,46.8V23.6h3.6v3.7c1.9-2.4,4.5-4.2,7.7-4.2v3.7c-0.4-0.1-0.9-0.1-1.4-0.1c-2.2,0-5.2,1.8-6.3,3.7v16.4H389z"/>
				</g>
			</g>
			<g>
				<path fill="#808285" d="M420.2,14.2v38.9h-8.9v-2.7h5.6V16.9h-5.6v-2.7H420.2z"/>
			</g>
			<g>
				<path fill="#808285" d="M167.5,53.1V14.3h8.9v2.7h-5.6v33.5h5.6v2.7H167.5z"/>
			</g>
		</g>
	</g>
</g>
</svg>
